<?xml version="1.0" standalone="no"?>
<!DOCTYPE svg PUBLIC "-//W3C//DTD SVG 20010904//EN"
 "http://www.w3.org/TR/2001/REC-SVG-20010904/DTD/svg10.dtd">
<svg version="1.0" xmlns="http://www.w3.org/2000/svg"
 width="900.000000pt" height="177.000000pt" viewBox="0 0 900.000000 177.000000"
 preserveAspectRatio="xMidYMid meet">
<metadata>
Created by potrace 1.10, written by Peter Selinger 2001-2011
</metadata>
<g transform="translate(0.000000,177.000000) scale(0.100000,-0.100000)"
fill="#3F4845" stroke="none">
<path d="M4163 1479 c3 -68 21 -69 24 -1 2 40 -1 52 -12 52 -11 0 -14 -12 -12
-51z"/>
<path d="M4166 1338 c-7 -76 -7 -234 1 -266 4 -18 1 -25 -16 -29 -26 -7 -29
-59 -5 -104 13 -27 15 -64 9 -272 -4 -133 -7 -297 -8 -364 -2 -133 -11 -160
-45 -130 -13 12 -21 14 -29 6 -20 -20 -33 2 -33 58 0 44 -5 60 -22 79 -36 37
-58 27 -58 -28 0 -19 1 -19 18 3 l19 22 6 -64 c3 -35 9 -74 13 -87 5 -18 2
-24 -15 -29 -23 -6 -25 -11 -11 -33 9 -13 12 -13 23 2 8 10 39 22 73 28 95 18
97 17 104 -10 l6 -25 9 30 c5 17 9 205 9 418 1 364 2 389 19 402 28 20 18 65
-20 91 -17 12 -28 25 -24 30 5 5 11 80 14 166 4 155 2 168 -28 168 -1 0 -5
-28 -9 -62z"/>
<path d="M5753 766 c6 -68 1 -80 -38 -88 -13 -2 -19 -10 -17 -23 2 -11 3 -48
3 -83 -1 -43 4 -70 16 -88 l17 -26 18 22 c10 12 18 33 18 46 0 39 35 29 92
-26 28 -27 52 -50 53 -50 0 0 9 16 19 35 16 30 17 38 6 65 -12 29 -15 31 -56
24 l-44 -6 0 56 c0 56 -1 57 -35 72 l-35 14 7 60 c5 53 4 60 -12 60 -16 0 -17
-7 -12 -64z"/>
<path d="M6156 664 c-9 -8 -16 -23 -16 -31 0 -9 -7 -24 -16 -34 -12 -14 -14
-29 -9 -73 4 -31 11 -56 16 -56 5 0 20 18 34 40 14 22 30 40 36 40 16 0 94
-48 114 -70 21 -23 89 -28 102 -6 4 7 19 19 32 26 l25 13 -23 18 c-31 26 -49
24 -63 -6 -8 -18 -19 -25 -38 -25 -36 0 -51 20 -44 57 4 22 1 34 -11 44 -10 8
-31 29 -48 47 -33 35 -67 41 -91 16z"/>
<path d="M6014 482 c-6 -4 -14 -17 -18 -29 -4 -14 -15 -23 -27 -23 -10 0 -19
-4 -19 -10 0 -12 9 -12 62 0 24 5 55 12 71 15 35 7 34 16 -2 38 -31 18 -50 21
-67 9z"/>
<path d="M2573 271 c7 -230 3 -245 -52 -217 -31 16 -31 18 -25 65 5 41 4 49
-12 53 -11 3 -26 9 -34 12 -9 4 -30 -7 -53 -28 -36 -32 -37 -35 -18 -41 31 -9
28 -45 -3 -45 -14 0 -28 4 -31 10 -9 14 -50 12 -91 -5 -34 -14 -38 -13 -64 5
-15 11 -44 20 -63 20 -19 0 -40 7 -47 15 -17 21 -47 19 -53 -4 -6 -24 -74 -48
-90 -32 -7 7 -6 16 7 29 16 19 15 20 -16 26 -39 8 -61 -9 -35 -28 9 -7 17 -25
17 -40 0 -26 -3 -27 -37 -24 -29 2 -38 -1 -38 -12 0 -8 7 -14 15 -12 99 22
283 30 305 13 22 -18 77 -20 112 -6 19 8 52 15 72 15 20 0 47 7 59 16 27 19
77 11 108 -18 16 -14 33 -18 65 -16 l44 3 5 85 c6 96 12 110 40 103 19 -5 20
0 20 105 0 101 2 112 20 122 38 20 20 30 -57 30 l-76 0 6 -199z m82 126 c0
-26 -20 -25 -23 2 -3 16 1 22 10 19 7 -3 13 -12 13 -21z m5 -77 c0 -20 -5 -30
-15 -30 -15 0 -21 40 -8 53 14 15 23 6 23 -23z"/>
<path d="M5603 455 c-10 -28 7 -96 31 -122 l23 -25 11 45 c7 24 18 50 27 57
25 21 17 38 -22 49 -51 15 -63 14 -70 -4z"/>
<path d="M5228 428 c-52 -22 -52 -22 -49 -119 3 -60 1 -67 -23 -82 -26 -17
-26 -47 -1 -47 15 0 59 56 69 87 4 13 14 30 23 38 14 14 18 14 38 1 12 -8 25
-12 29 -9 3 4 6 37 6 74 0 52 -4 68 -16 73 -21 8 -21 8 -76 -16z"/>
<path d="M5475 429 c-4 -6 -14 -8 -21 -5 -19 7 -84 -51 -84 -75 0 -30 12 -49
30 -49 11 0 22 5 25 10 13 21 61 10 90 -20 33 -35 45 -31 45 16 0 23 -5 34
-15 34 -19 0 -35 31 -35 69 0 31 -21 43 -35 20z"/>
<path d="M6370 425 c0 -8 7 -15 15 -15 8 0 15 7 15 15 0 8 -7 15 -15 15 -8 0
-15 -7 -15 -15z"/>
<path d="M6540 404 c0 -19 5 -45 11 -56 9 -17 8 -24 -5 -33 -23 -18 -20 -28 8
-21 23 6 25 3 31 -44 4 -28 10 -48 14 -45 5 2 11 48 14 102 7 107 -2 133 -50
133 -20 0 -23 -5 -23 -36z"/>
<path d="M7130 403 c0 -65 9 -83 41 -83 16 0 43 -9 61 -20 18 -11 41 -20 50
-20 27 0 66 -21 73 -39 4 -9 13 -41 21 -71 17 -62 49 -97 98 -104 17 -3 75 -7
129 -9 93 -4 97 -3 97 17 0 12 -4 26 -8 33 -10 15 -102 29 -111 16 -3 -6 -41
-14 -83 -18 l-77 -7 2 124 2 123 -40 2 c-22 0 -59 -3 -83 -8 -60 -13 -80 0
-84 54 -3 42 -3 42 -45 45 l-43 3 0 -38z"/>
<path d="M6431 410 l-23 -20 32 -30 c37 -35 50 -38 50 -11 0 24 -20 81 -28 81
-4 -1 -18 -10 -31 -20z"/>
<path d="M6657 414 c-6 -7 0 -181 9 -233 4 -25 8 -31 14 -21 7 12 15 10 41 -9
24 -18 36 -21 53 -13 21 10 20 10 -6 21 -20 7 -28 18 -28 35 0 14 -8 29 -17
34 -13 8 -17 26 -17 91 -1 61 -5 84 -16 91 -18 11 -25 12 -33 4z"/>
<path d="M4610 374 c0 -13 -4 -26 -10 -29 -5 -3 -10 -39 -10 -80 0 -111 15
-134 43 -67 8 20 18 45 21 55 9 29 44 20 62 -15 23 -45 46 -61 57 -42 5 9 6
21 4 28 -3 8 -2 44 3 82 5 38 6 72 2 75 -4 4 -44 9 -89 11 -81 5 -83 4 -83
-18z"/>
<path d="M2798 360 c-14 -25 -15 -38 -6 -87 6 -32 12 -71 13 -88 2 -25 6 -30
26 -29 13 1 28 -5 32 -12 18 -30 27 -11 27 56 0 64 -9 86 -25 60 -11 -18 -25
0 -25 30 0 19 7 33 20 40 25 14 26 36 1 50 -31 16 -45 12 -63 -20z"/>
<path d="M6844 382 c-22 -14 -26 -55 -14 -133 12 -79 23 -97 35 -59 3 11 15
24 24 30 27 14 38 113 17 146 -16 24 -41 30 -62 16z"/>
<path d="M2973 352 c-8 -5 -11 -30 -9 -72 2 -36 4 -80 5 -97 1 -45 18 -41 31
6 13 50 33 56 101 34 49 -16 55 -22 65 -58 l11 -40 7 35 c4 20 8 58 9 85 l2
50 -53 0 c-30 0 -56 -3 -59 -7 -2 -5 -11 -8 -19 -8 -9 0 -14 11 -14 35 0 28
-4 35 -19 35 -11 0 -25 2 -33 5 -7 3 -18 1 -25 -3z"/>
<path d="M6992 333 c-19 -19 -21 -26 -11 -45 6 -13 13 -24 14 -25 1 -2 21 6
44 18 24 11 51 17 62 14 11 -4 19 -2 19 4 0 6 -4 11 -9 11 -5 0 -11 10 -15 23
-8 33 -71 33 -104 0z"/>
<path d="M4287 344 c-11 -12 3 -24 29 -24 15 0 24 6 24 15 0 15 -40 21 -53 9z"/>
<path d="M4951 330 c-13 -11 -32 -20 -41 -20 -25 0 -32 -26 -24 -87 6 -52 19
-68 30 -38 3 8 22 25 42 37 l35 22 37 -42 c21 -23 40 -39 44 -35 9 9 7 91 -2
95 -4 2 -17 21 -28 43 -25 47 -58 56 -93 25z"/>
<path d="M2870 305 c0 -8 5 -15 10 -15 6 0 10 7 10 15 0 8 -4 15 -10 15 -5 0
-10 -7 -10 -15z"/>
<path d="M3767 297 c-17 -21 -17 -23 8 -42 14 -12 25 -28 25 -38 0 -25 37 -90
45 -78 3 6 19 11 36 11 25 0 29 4 29 29 0 38 -25 59 -50 43 -24 -15 -34 -1
-26 34 8 30 -9 64 -32 64 -9 0 -25 -10 -35 -23z"/>
<path d="M4285 290 c-29 -5 -30 -7 -26 -50 2 -37 16 -73 39 -110 2 -2 7 1 11
9 7 11 12 11 29 0 18 -11 28 -10 66 8 l45 22 26 -21 c30 -23 28 -25 43 27 7
26 8 43 2 49 -6 6 -10 23 -10 38 0 25 -3 28 -33 28 -20 0 -41 -8 -50 -18 -19
-21 -22 -42 -7 -42 18 0 11 -26 -14 -49 -15 -14 -33 -21 -48 -19 -22 3 -23 7
-21 65 3 67 -2 73 -52 63z"/>
<path d="M3530 283 c-14 -2 -29 -9 -34 -14 -13 -12 -53 -12 -61 1 -11 18 -43
10 -51 -12 -4 -13 -17 -33 -30 -46 l-23 -23 -11 21 c-9 17 -19 20 -48 18 -37
-3 -37 -3 -34 -43 5 -53 17 -76 26 -48 7 21 61 39 207 68 71 14 189 6 230 -16
16 -8 24 -8 32 0 16 16 -2 42 -39 60 -16 8 -37 18 -46 22 -24 12 -88 18 -118
12z"/>
<path d="M168 262 c-20 -4 -23 -30 -8 -84 9 -30 16 -38 43 -44 17 -3 41 -13
52 -20 22 -16 51 -18 60 -5 8 14 -24 89 -41 95 -10 4 -13 13 -9 25 3 11 1 22
-5 26 -13 8 -69 13 -92 7z"/>
<path d="M787 172 c-10 -10 -17 -28 -17 -40 0 -16 -6 -22 -22 -22 -33 0 -52
-15 -44 -35 5 -14 13 -15 49 -9 68 12 66 12 158 -40 48 -27 177 -33 195 -8 19
24 17 32 -6 32 -12 0 -25 10 -32 25 -14 32 -20 31 -61 -5 -19 -17 -40 -30 -46
-30 -16 0 -61 49 -72 78 -6 15 -17 22 -34 22 -20 0 -25 5 -25 25 0 30 -20 33
-43 7z"/>
<path d="M2720 158 c0 -41 10 -78 20 -78 17 0 32 68 20 90 -17 32 -40 25 -40
-12z"/>
<path d="M4792 144 c12 -12 26 -15 52 -10 53 10 44 26 -16 26 -48 0 -51 -1
-36 -16z"/>
<path d="M538 125 c-15 -8 -29 -24 -33 -35 -8 -25 -27 -25 -50 0 -24 26 -33
25 -47 -6 l-12 -25 -17 22 -16 22 -21 -21 c-21 -21 -21 -22 -2 -32 29 -15 155
-12 197 5 31 13 45 14 85 4 49 -13 77 -5 45 12 -9 6 -17 18 -17 27 0 42 -59
55 -112 27z"/>
<path d="M1674 130 c-12 -5 -25 -13 -28 -19 -4 -6 -27 -8 -56 -4 -50 6 -50 6
-65 -31 -15 -34 -35 -41 -35 -12 0 17 -33 46 -53 46 -9 0 -25 -9 -35 -20 -14
-15 -26 -19 -50 -14 -17 3 -33 12 -36 20 -8 21 -39 17 -54 -6 -16 -26 -59 -26
-67 0 -9 29 -42 25 -49 -7 -5 -16 -3 -29 5 -34 6 -4 9 -16 6 -28 -4 -17 -1
-21 18 -21 13 0 25 6 27 13 4 9 46 12 159 14 85 0 165 6 179 11 42 16 185 25
208 13 17 -9 23 -7 36 11 22 32 20 48 -7 48 -13 0 -32 7 -43 15 -22 16 -30 17
-60 5z"/>
<path d="M8125 124 c-7 -8 -45 -14 -95 -16 -55 -2 -84 -7 -87 -15 -7 -18 -53
-16 -108 3 -65 22 -99 16 -103 -17 -3 -25 -1 -27 65 -36 66 -9 100 -7 288 17
121 16 474 3 513 -19 9 -5 59 -7 112 -4 84 5 101 3 137 -16 28 -14 61 -21 98
-21 l55 0 0 36 0 37 -54 -7 c-66 -7 -82 -2 -102 35 l-15 29 -50 -26 c-37 -18
-55 -22 -62 -15 -15 15 -54 14 -60 -2 -3 -9 -9 -9 -27 2 -13 7 -58 16 -102 18
-43 3 -78 10 -78 14 0 5 -7 9 -15 9 -8 0 -15 -7 -15 -15 0 -20 -27 -19 -38 1
-12 21 -237 28 -257 8z"/>
<path d="M70 109 c-20 -37 28 -67 58 -37 16 16 15 23 -4 42 -21 22 -41 20 -54
-5z"/>
<path d="M0 57 c0 -24 26 -45 39 -31 3 4 0 9 -6 11 -7 3 -13 11 -13 18 0 8 -4
17 -10 20 -6 3 -10 -5 -10 -18z"/>
<path d="M2643 3 c9 -2 25 -2 35 0 9 3 1 5 -18 5 -19 0 -27 -2 -17 -5z"/>
</g>
</svg>
